<svg xmlns="http://www.w3.org/2000/svg" class="standalone-flag" preserveAspectRatio="xMidYMid meet" viewBox="0 0 72 72"><path fill="#fff" d="M5,17h62v38H5V17Z"/><defs><clipPath id="flag-layer-1-0" clipPathUnits="userSpaceOnUse"><path xmlns="http://www.w3.org/2000/svg" fill="#e60012" d="M5,17h62v38H5V17Z"/></clipPath></defs><g clip-path="url(#flag-layer-1-0)"><rect xmlns="http://www.w3.org/2000/svg" width="62" height="12.7" x="5" y="17" fill="#000"/></g><defs><clipPath id="flag-layer-2-0" clipPathUnits="userSpaceOnUse"><path xmlns="http://www.w3.org/2000/svg" fill="#e60012" d="M5,17h62v38H5V17Z"/></clipPath></defs><g clip-path="url(#flag-layer-2-0)"><rect xmlns="http://www.w3.org/2000/svg" width="62" height="12.7" x="5" y="29.7" fill="#d00"/></g><defs><clipPath id="flag-layer-3-0" clipPathUnits="userSpaceOnUse"><path xmlns="http://www.w3.org/2000/svg" fill="#e60012" d="M5,17h62v38H5V17Z"/></clipPath></defs><g clip-path="url(#flag-layer-3-0)"><rect xmlns="http://www.w3.org/2000/svg" width="62" height="12.7" x="5" y="42.3" fill="#ffcf00"/></g><defs><clipPath id="flag-layer-4-0" clipPathUnits="userSpaceOnUse"><path xmlns="http://www.w3.org/2000/svg" fill="#e60012" d="M5,17h62v38H5V17Z"/></clipPath></defs><g clip-path="url(#flag-layer-4-0)"><path xmlns="http://www.w3.org/2000/svg" fill="red" d="M67,17v38H5"/></g><defs><clipPath id="flag-layer-5-0" clipPathUnits="userSpaceOnUse"><path xmlns="http://www.w3.org/2000/svg" fill="#e60012" d="M5,17h62v38H5V17Z"/></clipPath></defs><g clip-path="url(#flag-layer-5-0)"><g><g transform="translate(18 4) translate(36 36) scale(0.5 0.5) translate(-36 -36)"><rect xmlns="http://www.w3.org/2000/svg" width="10.7" height="38" x="30.7" y="17" fill="#fff"/></g></g></g><defs><clipPath id="flag-layer-6-0" clipPathUnits="userSpaceOnUse"><path xmlns="http://www.w3.org/2000/svg" fill="#e60012" d="M5,17h62v38H5V17Z"/></clipPath></defs><g clip-path="url(#flag-layer-6-0)"><g><g><g transform="translate(18 4) rotate(90 36 36) translate(36 36) scale(0.5 0.5) translate(-36 -36)"><rect xmlns="http://www.w3.org/2000/svg" width="10.7" height="38" x="30.7" y="17" fill="#fff"/></g></g></g></g><path fill="none" stroke="#000" stroke-linecap="round" stroke-linejoin="round" stroke-width="2" d="M5,17h62v38H5V17Z"/></svg>