<svg xmlns="http://www.w3.org/2000/svg" xmlns:svg="http://www.w3.org/2000/svg" id="svg67" width="100" height="100" x="0" y="0" fill="none" version="1.1" viewBox="0 0 100 100"><defs id="defs71"><filter style="color-interpolation-filters:sRGB" id="filter203" width="1" height="1" x="0" y="0"><feColorMatrix id="feColorMatrix199" result="color1" type="hueRotate" values="180"/><feColorMatrix id="feColorMatrix201" result="color2" values="-1 0 0 0 1 0 -1 0 0 1 0 0 -1 0 1 -0.21 -0.72 -0.07 2 0"/></filter><filter style="color-interpolation-filters:sRGB" id="filter209" width="1" height="1" x="0" y="0"><feColorMatrix id="feColorMatrix205" result="color1" type="hueRotate" values="180"/><feColorMatrix id="feColorMatrix207" result="color2" values="-1 0 0 0 1 0 -1 0 0 1 0 0 -1 0 1 -0.21 -0.72 -0.07 2 0"/></filter></defs><path id="path59" fill="#000" d="m 59.903346,13.687732 v 6.602231 h 6.60223 v 19.806691 h -6.60223 v 6.602231 H 40.096654 v -6.602231 h -6.60223 V 20.289963 h 6.60223 v -6.602231 z" style="stroke-width:1.65056;filter:url(#filter209)"/><path id="path61" fill="#000" fill-rule="evenodd" d="M 33.494424,0.48327138 V 7.0855019 h -6.602231 v 6.6022301 h -6.60223 v 33.011153 h 6.60223 v 6.60223 h 6.602231 v 6.602231 h -6.602231 v 39.613383 h 6.602231 v -6.602231 h 6.60223 v -6.60223 h 4.951673 v -6.602231 h 6.602231 v 6.602231 h 6.60223 v 6.60223 h 6.602231 v 6.602231 h 6.60223 V 59.903346 h -4.951673 v -6.602231 h 6.602231 v -6.60223 h 6.60223 V 13.687732 h -6.60223 V 7.0855019 H 66.505576 V 0.48327138 Z M 58.252788,86.312268 v -6.602231 h -6.60223 v -6.60223 h -6.602231 v 6.60223 h -6.60223 v 6.602231 H 33.494424 V 59.903346 H 64.855019 V 86.312268 Z M 59.903346,7.0855019 H 40.096654 v 6.6022301 h -6.60223 v 6.602231 h -6.602231 v 19.806691 h 6.602231 v 6.602231 h 6.60223 v 6.60223 h 19.806692 v -6.60223 h 6.60223 v -6.602231 h 6.602231 V 20.289963 h -6.602231 v -6.602231 h -6.60223 z" clip-rule="evenodd" style="stroke-width:1.65056;filter:url(#filter203)"/></svg>