<svg xmlns="http://www.w3.org/2000/svg" id="_レイヤー_1" version="1.1" viewBox="0 0 72 72"><defs><style>.st0{fill:#e60012}</style></defs><g id="s"><g id="c"><path id="t" d="M36,21.6l-.6,2,1,.3-.3-2.3Z" class="st0"/><path id="t1" d="M36,21.6l.6,2-1,.3.3-2.3Z" class="st0" data-name="t"/></g><g id="a"><g id="c1" data-name="c"><path id="t2" d="M38,23h-2.1s0,1,0,1l2.1-1Z" class="st0" data-name="t"/><path id="t3" d="M38,23l-1.7,1.2-.6-.8,2.3-.4Z" class="st0" data-name="t"/></g><g id="c2" data-name="c"><path id="t4" d="M37.2,25.4l-.6-2-1,.3,1.6,1.7Z" class="st0" data-name="t"/><path id="t5" d="M37.2,25.4l-1.7-1.2.6-.8,1.1,2.1Z" class="st0" data-name="t"/></g></g><g id="a1" data-name="a"><g id="c3" data-name="c"><path id="t6" d="M34,23h2.1s0,1,0,1l-2.1-1Z" class="st0" data-name="t"/><path id="t7" d="M34,23l1.7,1.2.6-.8-2.3-.4Z" class="st0" data-name="t"/></g><g id="c4" data-name="c"><path id="t8" d="M34.8,25.4l.6-2,1,.3-1.6,1.7Z" class="st0" data-name="t"/><path id="t9" d="M34.8,25.4l1.7-1.2-.6-.8-1.1,2.1Z" class="st0" data-name="t"/></g></g></g><g id="s1" data-name="s"><g id="c5" data-name="c"><path id="t10" d="M36,46.6l-.6,2,1,.3-.3-2.3Z" class="st0" data-name="t"/><path id="t11" d="M36,46.6l.6,2-1,.3.3-2.3Z" class="st0" data-name="t"/></g><g id="a2" data-name="a"><g id="c6" data-name="c"><path id="t12" d="M38,48.1h-2.1s0,1,0,1l2.1-1Z" class="st0" data-name="t"/><path id="t13" d="M38,48.1l-1.7,1.2-.6-.8,2.3-.4Z" class="st0" data-name="t"/></g><g id="c7" data-name="c"><path id="t14" d="M37.2,50.4l-.6-2-1,.3,1.6,1.7Z" class="st0" data-name="t"/><path id="t15" d="M37.2,50.4l-1.7-1.2.6-.8,1.1,2.1Z" class="st0" data-name="t"/></g></g><g id="a3" data-name="a"><g id="c8" data-name="c"><path id="t16" d="M34,48.1h2.1s0,1,0,1l-2.1-1Z" class="st0" data-name="t"/><path id="t17" d="M34,48.1l1.7,1.2.6-.8-2.3-.4Z" class="st0" data-name="t"/></g><g id="c9" data-name="c"><path id="t18" d="M34.8,50.4l.6-2,1,.3-1.6,1.7Z" class="st0" data-name="t"/><path id="t19" d="M34.8,50.4l1.7-1.2-.6-.8-1.1,2.1Z" class="st0" data-name="t"/></g></g></g><g id="l"><g id="s2" data-name="s"><g id="c10" data-name="c"><path id="t20" d="M23.5,34.1l-.6,2,1,.3-.3-2.3Z" class="st0" data-name="t"/><path id="t21" d="M23.5,34.1l.6,2-1,.3.3-2.3Z" class="st0" data-name="t"/></g><g id="a4" data-name="a"><g id="c11" data-name="c"><path id="t22" d="M25.5,35.6h-2.1s0,1,0,1l2.1-1Z" class="st0" data-name="t"/><path id="t23" d="M25.5,35.6l-1.7,1.2-.6-.8,2.3-.4Z" class="st0" data-name="t"/></g><g id="c12" data-name="c"><path id="t24" d="M24.7,37.9l-.6-2-1,.3,1.6,1.7Z" class="st0" data-name="t"/><path id="t25" d="M24.7,37.9l-1.7-1.2.6-.8,1.1,2.1Z" class="st0" data-name="t"/></g></g><g id="a5" data-name="a"><g id="c13" data-name="c"><path id="t26" d="M21.5,35.6h2.1s0,1,0,1l-2.1-1Z" class="st0" data-name="t"/><path id="t27" d="M21.5,35.6l1.7,1.2.6-.8-2.3-.4Z" class="st0" data-name="t"/></g><g id="c14" data-name="c"><path id="t28" d="M22.3,37.9l.6-2,1,.3-1.6,1.7Z" class="st0" data-name="t"/><path id="t29" d="M22.3,37.9l1.7-1.2-.6-.8-1.1,2.1Z" class="st0" data-name="t"/></g></g></g><g id="s3" data-name="s"><g id="c15" data-name="c"><path id="t30" d="M28.5,27l1.7-1.2-.6-.8-1.1,2.1Z" class="st0" data-name="t"/><path id="t31" d="M28.5,27l.6-2,1,.3-1.6,1.7Z" class="st0" data-name="t"/></g><g id="a6" data-name="a"><g id="c16" data-name="c"><path id="t32" d="M27.8,24.7l1.7,1.2.6-.8-2.3-.4Z" class="st0" data-name="t"/><path id="t33" d="M27.8,24.7h2.1v1s-2.1-1-2.1-1Z" class="st0" data-name="t"/></g><g id="c17" data-name="c"><path id="t34" d="M29.7,23.3l-.6,2,1,.3-.3-2.3Z" class="st0" data-name="t"/><path id="t35" d="M29.7,23.3l.6,2-1,.3.3-2.3Z" class="st0" data-name="t"/></g></g><g id="a7" data-name="a"><g id="c18" data-name="c"><path id="t36" d="M31,27l-1.7-1.2.6-.8,1.1,2.1Z" class="st0" data-name="t"/><path id="t37" d="M31,27l-.6-2-1,.3,1.6,1.7Z" class="st0" data-name="t"/></g><g id="c19" data-name="c"><path id="t38" d="M31.7,24.7l-1.7,1.2-.6-.8,2.3-.4Z" class="st0" data-name="t"/><path id="t39" d="M31.7,24.7h-2.1v1s2.1-1,2.1-1Z" class="st0" data-name="t"/></g></g></g><g id="s4" data-name="s"><g id="c20" data-name="c"><path id="t40" d="M26.4,31.6l-.6-2-1,.3,1.6,1.7Z" class="st0" data-name="t"/><path id="t41" d="M26.4,31.6l-1.7-1.2.6-.8,1.1,2.1Z" class="st0" data-name="t"/></g><g id="a8" data-name="a"><g id="c21" data-name="c"><path id="t42" d="M23.9,31.6l1.7-1.2-.6-.8-1.1,2.1Z" class="st0" data-name="t"/><path id="t43" d="M23.9,31.6l.6-2,1,.3-1.6,1.7Z" class="st0" data-name="t"/></g><g id="c22" data-name="c"><path id="t44" d="M23.2,29.3l1.7,1.2.6-.8-2.3-.4Z" class="st0" data-name="t"/><path id="t45" d="M23.2,29.3h2.1v1s-2.1-1-2.1-1Z" class="st0" data-name="t"/></g></g><g id="a9" data-name="a"><g id="c23" data-name="c"><path id="t46" d="M27.1,29.3l-1.7,1.2-.6-.8,2.3-.4Z" class="st0" data-name="t"/><path id="t47" d="M27.1,29.3h-2.1s0,1,0,1l2.1-1Z" class="st0" data-name="t"/></g><g id="c24" data-name="c"><path id="t48" d="M25.2,27.9l.6,2-1,.3.3-2.3Z" class="st0" data-name="t"/><path id="t49" d="M25.2,27.9l-.6,2,1,.3-.3-2.3Z" class="st0" data-name="t"/></g></g></g><g id="s5" data-name="s"><g id="c25" data-name="c"><path id="t50" d="M27.1,41.8h-2.1s0,1,0,1l2.1-1Z" class="st0" data-name="t"/><path id="t51" d="M27.1,41.8l-1.7,1.2-.6-.8,2.3-.4Z" class="st0" data-name="t"/></g><g id="a10" data-name="a"><g id="c26" data-name="c"><path id="t52" d="M26.4,44.1l-.6-2-1,.3,1.6,1.7Z" class="st0" data-name="t"/><path id="t53" d="M26.4,44.1l-1.7-1.2.6-.8,1.1,2.1Z" class="st0" data-name="t"/></g><g id="c27" data-name="c"><path id="t54" d="M23.9,44.1l1.7-1.2-.6-.8-1.1,2.1Z" class="st0" data-name="t"/><path id="t55" d="M23.9,44.1l.6-2,1,.3-1.6,1.7Z" class="st0" data-name="t"/></g></g><g id="a11" data-name="a"><g id="c28" data-name="c"><path id="t56" d="M25.2,40.4l.6,2-1,.3.3-2.3Z" class="st0" data-name="t"/><path id="t57" d="M25.2,40.4l-.6,2,1,.3-.3-2.3Z" class="st0" data-name="t"/></g><g id="c29" data-name="c"><path id="t58" d="M23.2,41.8h2.1s0,1,0,1l-2.1-1Z" class="st0" data-name="t"/><path id="t59" d="M23.2,41.8l1.7,1.2.6-.8-2.3-.4Z" class="st0" data-name="t"/></g></g></g><g id="s6" data-name="s"><g id="c30" data-name="c"><path id="t60" d="M31.7,46.4h-2.1s0,1,0,1l2.1-1Z" class="st0" data-name="t"/><path id="t61" d="M31.7,46.4l-1.7,1.2-.6-.8,2.3-.4Z" class="st0" data-name="t"/></g><g id="a12" data-name="a"><g id="c31" data-name="c"><path id="t62" d="M31,48.7l-.6-2-1,.3,1.6,1.7Z" class="st0" data-name="t"/><path id="t63" d="M31,48.7l-1.7-1.2.6-.8,1.1,2.1Z" class="st0" data-name="t"/></g><g id="c32" data-name="c"><path id="t64" d="M28.5,48.7l1.7-1.2-.6-.8-1.1,2.1Z" class="st0" data-name="t"/><path id="t65" d="M28.5,48.7l.6-2,1,.3-1.6,1.7Z" class="st0" data-name="t"/></g></g><g id="a13" data-name="a"><g id="c33" data-name="c"><path id="t66" d="M29.7,45l.6,2-1,.3.3-2.3Z" class="st0" data-name="t"/><path id="t67" d="M29.7,45l-.6,2,1,.3-.3-2.3Z" class="st0" data-name="t"/></g><g id="c34" data-name="c"><path id="t68" d="M27.8,46.4h2.1v1s-2.1-1-2.1-1Z" class="st0" data-name="t"/><path id="t69" d="M27.8,46.4l1.7,1.2.6-.8-2.3-.4Z" class="st0" data-name="t"/></g></g></g></g><g id="l1" data-name="l"><g id="s7" data-name="s"><g id="c35" data-name="c"><path id="t70" d="M48.5,34.1l.6,2-1,.3.3-2.3Z" class="st0" data-name="t"/><path id="t71" d="M48.5,34.1l-.6,2,1,.3-.3-2.3Z" class="st0" data-name="t"/></g><g id="a14" data-name="a"><g id="c36" data-name="c"><path id="t72" d="M46.5,35.6h2.1s0,1,0,1l-2.1-1Z" class="st0" data-name="t"/><path id="t73" d="M46.5,35.6l1.7,1.2.6-.8-2.3-.4Z" class="st0" data-name="t"/></g><g id="c37" data-name="c"><path id="t74" d="M47.3,37.9l.6-2,1,.3-1.6,1.7Z" class="st0" data-name="t"/><path id="t75" d="M47.3,37.9l1.7-1.2-.6-.8-1.1,2.1Z" class="st0" data-name="t"/></g></g><g id="a15" data-name="a"><g id="c38" data-name="c"><path id="t76" d="M50.5,35.6h-2.1s0,1,0,1l2.1-1Z" class="st0" data-name="t"/><path id="t77" d="M50.5,35.6l-1.7,1.2-.6-.8,2.3-.4Z" class="st0" data-name="t"/></g><g id="c39" data-name="c"><path id="t78" d="M49.7,37.9l-.6-2-1,.3,1.6,1.7Z" class="st0" data-name="t"/><path id="t79" d="M49.7,37.9l-1.7-1.2.6-.8,1.1,2.1Z" class="st0" data-name="t"/></g></g></g><g id="s8" data-name="s"><g id="c40" data-name="c"><path id="t80" d="M43.5,27l-1.7-1.2.6-.8,1.1,2.1Z" class="st0" data-name="t"/><path id="t81" d="M43.5,27l-.6-2-1,.3,1.6,1.7Z" class="st0" data-name="t"/></g><g id="a16" data-name="a"><g id="c41" data-name="c"><path id="t82" d="M44.2,24.7l-1.7,1.2-.6-.8,2.3-.4Z" class="st0" data-name="t"/><path id="t83" d="M44.2,24.7h-2.1v1s2.1-1,2.1-1Z" class="st0" data-name="t"/></g><g id="c42" data-name="c"><path id="t84" d="M42.3,23.3l.6,2-1,.3.3-2.3Z" class="st0" data-name="t"/><path id="t85" d="M42.3,23.3l-.6,2,1,.3-.3-2.3Z" class="st0" data-name="t"/></g></g><g id="a17" data-name="a"><g id="c43" data-name="c"><path id="t86" d="M41,27l1.7-1.2-.6-.8-1.1,2.1Z" class="st0" data-name="t"/><path id="t87" d="M41,27l.6-2,1,.3-1.6,1.7Z" class="st0" data-name="t"/></g><g id="c44" data-name="c"><path id="t88" d="M40.3,24.7l1.7,1.2.6-.8-2.3-.4Z" class="st0" data-name="t"/><path id="t89" d="M40.3,24.7h2.1v1s-2.1-1-2.1-1Z" class="st0" data-name="t"/></g></g></g><g id="s9" data-name="s"><g id="c45" data-name="c"><path id="t90" d="M45.6,31.6l.6-2,1,.3-1.6,1.7Z" class="st0" data-name="t"/><path id="t91" d="M45.6,31.6l1.7-1.2-.6-.8-1.1,2.1Z" class="st0" data-name="t"/></g><g id="a18" data-name="a"><g id="c46" data-name="c"><path id="t92" d="M48.1,31.6l-1.7-1.2.6-.8,1.1,2.1Z" class="st0" data-name="t"/><path id="t93" d="M48.1,31.6l-.6-2-1,.3,1.6,1.7Z" class="st0" data-name="t"/></g><g id="c47" data-name="c"><path id="t94" d="M48.8,29.3l-1.7,1.2-.6-.8,2.3-.4Z" class="st0" data-name="t"/><path id="t95" d="M48.8,29.3h-2.1v1s2.1-1,2.1-1Z" class="st0" data-name="t"/></g></g><g id="a19" data-name="a"><g id="c48" data-name="c"><path id="t96" d="M44.9,29.3l1.7,1.2.6-.8-2.3-.4Z" class="st0" data-name="t"/><path id="t97" d="M44.9,29.3h2.1s0,1,0,1l-2.1-1Z" class="st0" data-name="t"/></g><g id="c49" data-name="c"><path id="t98" d="M46.8,27.9l-.6,2,1,.3-.3-2.3Z" class="st0" data-name="t"/><path id="t99" d="M46.8,27.9l.6,2-1,.3.3-2.3Z" class="st0" data-name="t"/></g></g></g><g id="s10" data-name="s"><g id="c50" data-name="c"><path id="t100" d="M44.9,41.8h2.1s0,1,0,1l-2.1-1Z" class="st0" data-name="t"/><path id="t101" d="M44.9,41.8l1.7,1.2.6-.8-2.3-.4Z" class="st0" data-name="t"/></g><g id="a20" data-name="a"><g id="c51" data-name="c"><path id="t102" d="M45.6,44.1l.6-2,1,.3-1.6,1.7Z" class="st0" data-name="t"/><path id="t103" d="M45.6,44.1l1.7-1.2-.6-.8-1.1,2.1Z" class="st0" data-name="t"/></g><g id="c52" data-name="c"><path id="t104" d="M48.1,44.1l-1.7-1.2.6-.8,1.1,2.1Z" class="st0" data-name="t"/><path id="t105" d="M48.1,44.1l-.6-2-1,.3,1.6,1.7Z" class="st0" data-name="t"/></g></g><g id="a21" data-name="a"><g id="c53" data-name="c"><path id="t106" d="M46.8,40.4l-.6,2,1,.3-.3-2.3Z" class="st0" data-name="t"/><path id="t107" d="M46.8,40.4l.6,2-1,.3.3-2.3Z" class="st0" data-name="t"/></g><g id="c54" data-name="c"><path id="t108" d="M48.8,41.8h-2.1s0,1,0,1l2.1-1Z" class="st0" data-name="t"/><path id="t109" d="M48.8,41.8l-1.7,1.2-.6-.8,2.3-.4Z" class="st0" data-name="t"/></g></g></g><g id="s11" data-name="s"><g id="c55" data-name="c"><path id="t110" d="M40.3,46.4h2.1s0,1,0,1l-2.1-1Z" class="st0" data-name="t"/><path id="t111" d="M40.3,46.4l1.7,1.2.6-.8-2.3-.4Z" class="st0" data-name="t"/></g><g id="a22" data-name="a"><g id="c56" data-name="c"><path id="t112" d="M41,48.7l.6-2,1,.3-1.6,1.7Z" class="st0" data-name="t"/><path id="t113" d="M41,48.7l1.7-1.2-.6-.8-1.1,2.1Z" class="st0" data-name="t"/></g><g id="c57" data-name="c"><path id="t114" d="M43.5,48.7l-1.7-1.2.6-.8,1.1,2.1Z" class="st0" data-name="t"/><path id="t115" d="M43.5,48.7l-.6-2-1,.3,1.6,1.7Z" class="st0" data-name="t"/></g></g><g id="a23" data-name="a"><g id="c58" data-name="c"><path id="t116" d="M42.3,45l-.6,2,1,.3-.3-2.3Z" class="st0" data-name="t"/><path id="t117" d="M42.3,45l.6,2-1,.3.3-2.3Z" class="st0" data-name="t"/></g><g id="c59" data-name="c"><path id="t118" d="M44.2,46.4h-2.1v1s2.1-1,2.1-1Z" class="st0" data-name="t"/><path id="t119" d="M44.2,46.4l-1.7,1.2-.6-.8,2.3-.4Z" class="st0" data-name="t"/></g></g></g></g></svg>