<svg xmlns="http://www.w3.org/2000/svg" id="_レイヤー_1" version="1.1" viewBox="0 0 72 72"><defs><style>.st0{fill:none;stroke:#e60012;stroke-miterlimit:10;stroke-width:.5px}</style></defs><path d="M36,29.7c-3.5,0-6.3,2.8-6.3,6.3,0,3.5,2.8,6.3,6.3,6.3,3.5,0,6.3-2.8,6.3-6.3,0-3.4-2.8-6.2-6.3-6.3h0Z" class="st0"/><path d="M36,29.7v12.6M42.3,36h-12.6M31.1,32.1c2.9,2.1,6.8,2.1,9.7,0M40.9,39.9c-2.9-2.1-6.8-2.1-9.7,0M35.5,29.9c-3.4,2.9-3.8,8-1,11.4.3.3.6.7,1,1M36.5,42.2c3.4-2.9,3.8-8,1-11.4-.3-.3-.6-.7-1-1" class="st0"/></svg>