<svg xmlns="http://www.w3.org/2000/svg" id="warship" version="1.1" viewBox="0 0 11 11"><defs><style>.st0{fill:none}.st1{fill:#0084d1}</style></defs><rect id="_x36_-1" width="1" height="1" x="10" y="5" class="st0" shape-rendering="crispEdges"/><rect id="_x33_-2" width="1" height="1" x="9" y="2" class="st0" shape-rendering="crispEdges"/><rect id="_x34_-2" width="1" height="1" x="9" y="3" class="st0" shape-rendering="crispEdges"/><rect id="_x35_-2" width="1" height="1" x="9" y="4" class="st1" shape-rendering="crispEdges"/><rect id="_x36_-2" width="1" height="1" x="9" y="5" class="st1" shape-rendering="crispEdges"/><rect id="_x37_-2" width="1" height="1" x="9" y="6" class="st1" shape-rendering="crispEdges"/><rect id="_x38_-2" width="1" height="1" x="9" y="7" class="st0" shape-rendering="crispEdges"/><rect id="_x39_-2" width="1" height="1" x="9" y="8" class="st0" shape-rendering="crispEdges"/><rect id="_x33_-21" width="1" height="1" x="10" y="2" class="st0" shape-rendering="crispEdges"/><rect id="_x34_-21" width="1" height="1" x="10" y="3" class="st0" shape-rendering="crispEdges"/><rect id="_x35_-21" width="1" height="1" x="10" y="4" class="st0" shape-rendering="crispEdges"/><rect id="_x37_-21" width="1" height="1" x="10" y="6" class="st0" shape-rendering="crispEdges"/><rect id="_x38_-21" width="1" height="1" x="10" y="7" class="st0" shape-rendering="crispEdges"/><rect id="_x39_-21" width="1" height="1" x="10" y="8" class="st0" shape-rendering="crispEdges"/><rect id="_x32_-3" width="1" height="1" x="8" y="1" class="st0" shape-rendering="crispEdges"/><rect id="_x33_-3" width="1" height="1" x="8" y="2" class="st0" shape-rendering="crispEdges"/><rect id="_x34_-3" width="1" height="1" x="8" y="3" class="st0" shape-rendering="crispEdges"/><rect id="_x35_-3" width="1" height="1" x="8" y="4" class="st1" shape-rendering="crispEdges"/><rect id="_x36_-3" width="1" height="1" x="8" y="5" class="st1" shape-rendering="crispEdges"/><rect id="_x37_-3" width="1" height="1" x="8" y="6" class="st1" shape-rendering="crispEdges"/><rect id="_x38_-3" width="1" height="1" x="8" y="7" class="st0" shape-rendering="crispEdges"/><rect id="_x39_-3" width="1" height="1" x="8" y="8" class="st0" shape-rendering="crispEdges"/><rect id="_x31_0-3" width="1" height="1" x="8" y="9" class="st0" shape-rendering="crispEdges"/><rect id="_x32_-4" width="1" height="1" x="7" y="1" class="st0" shape-rendering="crispEdges"/><rect id="_x33_-4" width="1" height="1" x="7" y="2" class="st1" shape-rendering="crispEdges"/><rect id="_x34_-4" width="1" height="1" x="7" y="3" class="st1" shape-rendering="crispEdges"/><rect id="_x35_-4" width="1" height="1" x="7" y="4" class="st1" shape-rendering="crispEdges"/><rect id="_x36_-4" width="1" height="1" x="7" y="5" class="st1" shape-rendering="crispEdges"/><rect id="_x37_-4" width="1" height="1" x="7" y="6" class="st1" shape-rendering="crispEdges"/><rect id="_x38_-4" width="1" height="1" x="7" y="7" class="st1" shape-rendering="crispEdges"/><rect id="_x39_-4" width="1" height="1" x="7" y="8" class="st1" shape-rendering="crispEdges"/><rect id="_x31_0-4" width="1" height="1" x="7" y="9" class="st0" shape-rendering="crispEdges"/><rect id="_x32_-5" width="1" height="1" x="6" y="1" class="st0" shape-rendering="crispEdges"/><rect id="_x33_-5" width="1" height="1" x="6" y="2" class="st1" shape-rendering="crispEdges"/><rect id="_x34_-5" width="1" height="1" x="6" y="3" class="st1" shape-rendering="crispEdges"/><rect id="_x35_-5" width="1" height="1" x="6" y="4" class="st1" shape-rendering="crispEdges"/><rect id="_x36_-5" width="1" height="1" x="6" y="5" class="st1" shape-rendering="crispEdges"/><rect id="_x37_-5" width="1" height="1" x="6" y="6" class="st1" shape-rendering="crispEdges"/><rect id="_x38_-5" width="1" height="1" x="6" y="7" class="st1" shape-rendering="crispEdges"/><rect id="_x39_-5" width="1" height="1" x="6" y="8" class="st1" shape-rendering="crispEdges"/><rect id="_x31_0-5" width="1" height="1" x="6" y="9" class="st0" shape-rendering="crispEdges"/><rect id="_x31_-6" width="1" height="1" x="5" class="st1" shape-rendering="crispEdges"/><rect id="_x32_-6" width="1" height="1" x="5" y="1" class="st1" shape-rendering="crispEdges"/><rect id="_x33_-6" width="1" height="1" x="5" y="2" class="st1" shape-rendering="crispEdges"/><rect id="_x34_-6" width="1" height="1" x="5" y="3" class="st1" shape-rendering="crispEdges"/><rect id="_x35_-6" width="1" height="1" x="5" y="4" class="st0" shape-rendering="crispEdges"/><rect id="_x36_-6" width="1" height="1" x="5" y="5" class="st0" shape-rendering="crispEdges"/><rect id="_x37_-6" width="1" height="1" x="5" y="6" class="st0" shape-rendering="crispEdges"/><rect id="_x38_-6" width="1" height="1" x="5" y="7" class="st1" shape-rendering="crispEdges"/><rect id="_x39_-6" width="1" height="1" x="5" y="8" class="st1" shape-rendering="crispEdges"/><rect id="_x31_0-6" width="1" height="1" x="5" y="9" class="st1" shape-rendering="crispEdges"/><rect id="_x31_1-6" width="1" height="1" x="5" y="10" class="st1" shape-rendering="crispEdges"/><rect id="_x32_-7" width="1" height="1" x="4" y="1" class="st1" shape-rendering="crispEdges"/><rect id="_x33_-7" width="1" height="1" x="4" y="2" class="st1" shape-rendering="crispEdges"/><rect id="_x34_-7" width="1" height="1" x="4" y="3" class="st1" shape-rendering="crispEdges"/><rect id="_x35_-7" width="1" height="1" x="4" y="4" class="st0" shape-rendering="crispEdges"/><rect id="_x36_-7" width="1" height="1" x="4" y="5" class="st0" shape-rendering="crispEdges"/><rect id="_x37_-7" width="1" height="1" x="4" y="6" class="st0" shape-rendering="crispEdges"/><rect id="_x38_-7" width="1" height="1" x="4" y="7" class="st1" shape-rendering="crispEdges"/><rect id="_x39_-7" width="1" height="1" x="4" y="8" class="st1" shape-rendering="crispEdges"/><rect id="_x31_0-7" width="1" height="1" x="4" y="9" class="st1" shape-rendering="crispEdges"/><rect id="_x32_-8" width="1" height="1" x="3" y="1" class="st1" shape-rendering="crispEdges"/><rect id="_x32_-81" width="1" height="1" x="3" y="2" class="st0" shape-rendering="crispEdges"/><rect id="_x34_-8" width="1" height="1" x="3" y="3" class="st0" shape-rendering="crispEdges"/><rect id="_x35_-8" width="1" height="1" x="3" y="4" class="st0" shape-rendering="crispEdges"/><rect id="_x36_-8" width="1" height="1" x="3" y="5" class="st0" shape-rendering="crispEdges"/><rect id="_x37_-8" width="1" height="1" x="3" y="6" class="st0" shape-rendering="crispEdges"/><rect id="_x38_-8" width="1" height="1" x="3" y="7" class="st0" shape-rendering="crispEdges"/><rect id="_x39_-8" width="1" height="1" x="3" y="8" class="st0" shape-rendering="crispEdges"/><rect id="_x31_0-8" width="1" height="1" x="3" y="9" class="st1" shape-rendering="crispEdges"/><rect id="_x32_-9" width="1" height="1" x="2" y="1" class="st1" shape-rendering="crispEdges"/><rect id="_x33_-9" width="1" height="1" x="2" y="2" class="st0" shape-rendering="crispEdges"/><rect id="_x34_-9" width="1" height="1" x="2" y="3" class="st0" shape-rendering="crispEdges"/><rect id="_x35_-9" width="1" height="1" x="2" y="4" class="st0" shape-rendering="crispEdges"/><rect id="_x36_-9" width="1" height="1" x="2" y="5" class="st0" shape-rendering="crispEdges"/><rect id="_x37_-9" width="1" height="1" x="2" y="6" class="st0" shape-rendering="crispEdges"/><rect id="_x38_-9" width="1" height="1" x="2" y="7" class="st0" shape-rendering="crispEdges"/><rect id="_x39_-9" width="1" height="1" x="2" y="8" class="st0" shape-rendering="crispEdges"/><rect id="_x31_0-9" width="1" height="1" x="2" y="9" class="st1" shape-rendering="crispEdges"/><rect id="_x33_-10" width="1" height="1" x="1" y="2" class="st0" shape-rendering="crispEdges"/><rect id="_x34_-10" width="1" height="1" x="1" y="3" class="st0" shape-rendering="crispEdges"/><rect id="_x35_-10" width="1" height="1" x="1" y="4" class="st0" shape-rendering="crispEdges"/><rect id="_x36_-10" width="1" height="1" x="1" y="5" class="st0" shape-rendering="crispEdges"/><rect id="_x37_-10" width="1" height="1" x="1" y="6" class="st0" shape-rendering="crispEdges"/><rect id="_x38_-10" width="1" height="1" x="1" y="7" class="st0" shape-rendering="crispEdges"/><rect id="_x39_-10" width="1" height="1" x="1" y="8" class="st0" shape-rendering="crispEdges"/><rect id="_x33_-101" width="1" height="1" y="2" class="st0" shape-rendering="crispEdges"/><rect id="_x33_-22" width="1" height="1" x="9" y="1" class="st0" shape-rendering="crispEdges"/><rect id="_x33_-23" width="1" height="1" x="10" y="1" class="st0" shape-rendering="crispEdges"/><rect id="_x33_-102" width="1" height="1" x="1" y="1" class="st0" shape-rendering="crispEdges"/><rect id="_x33_-103" width="1" height="1" y="1" class="st0" shape-rendering="crispEdges"/><rect id="_x32_-31" width="1" height="1" x="8" class="st0" shape-rendering="crispEdges"/><rect id="_x32_-41" width="1" height="1" x="7" class="st0" shape-rendering="crispEdges"/><rect id="_x32_-51" width="1" height="1" x="6" class="st0" shape-rendering="crispEdges"/><rect id="_x32_-71" width="1" height="1" x="4" class="st1" shape-rendering="crispEdges"/><rect id="_x32_-82" width="1" height="1" x="3" class="st1" shape-rendering="crispEdges"/><rect id="_x32_-91" width="1" height="1" x="2" class="st1" shape-rendering="crispEdges"/><rect id="_x33_-24" width="1" height="1" x="9" class="st0" shape-rendering="crispEdges"/><rect id="_x33_-25" width="1" height="1" x="10" class="st0" shape-rendering="crispEdges"/><rect id="_x33_-104" width="1" height="1" x="1" class="st0" shape-rendering="crispEdges"/><rect id="_x33_-105" width="1" height="1" class="st0" shape-rendering="crispEdges"/><rect id="_x33_-106" width="11" height="11" class="st0" shape-rendering="crispEdges"/><rect id="_x34_-101" width="1" height="1" y="3" class="st0" shape-rendering="crispEdges"/><rect id="_x35_-101" width="1" height="1" y="4" class="st0" shape-rendering="crispEdges"/><rect id="_x37_-101" width="1" height="1" y="6" class="st0" shape-rendering="crispEdges"/><rect id="_x38_-101" width="1" height="1" y="7" class="st0" shape-rendering="crispEdges"/><rect id="_x39_-101" width="1" height="1" y="8" class="st0" shape-rendering="crispEdges"/><rect id="_x39_-22" width="1" height="1" x="9" y="9" class="st0" shape-rendering="crispEdges"/><rect id="_x39_-23" width="1" height="1" x="10" y="9" class="st0" shape-rendering="crispEdges"/><rect id="_x39_-102" width="1" height="1" x="1" y="9" class="st0" shape-rendering="crispEdges"/><rect id="_x39_-103" width="1" height="1" y="9" class="st0" shape-rendering="crispEdges"/><rect id="_x31_0-31" width="1" height="1" x="8" y="10" class="st0" shape-rendering="crispEdges"/><rect id="_x31_0-41" width="1" height="1" x="7" y="10" class="st0" shape-rendering="crispEdges"/><rect id="_x31_0-51" width="1" height="1" x="6" y="10" class="st0" shape-rendering="crispEdges"/><rect id="_x31_0-71" width="1" height="1" x="4" y="10" class="st1" shape-rendering="crispEdges"/><rect id="_x31_0-81" width="1" height="1" x="3" y="10" class="st1" shape-rendering="crispEdges"/><rect id="_x31_0-91" width="1" height="1" x="2" y="10" class="st1" shape-rendering="crispEdges"/><rect id="_x39_-24" width="1" height="1" x="9" y="10" class="st0" shape-rendering="crispEdges"/><rect id="_x39_-25" width="1" height="1" x="10" y="10" class="st0" shape-rendering="crispEdges"/><rect id="_x39_-104" width="1" height="1" x="1" y="10" class="st0" shape-rendering="crispEdges"/><rect id="_x39_-105" width="1" height="1" y="10" class="st0" shape-rendering="crispEdges"/><rect id="_x36_-11" width="1" height="1" y="5" class="st0" shape-rendering="crispEdges"/></svg>